# xmcd
#
# Track frame offsets: 
#        150
#        14193
#        27747
#        41505
#        54602
#        68005
#        81578
#        94250
#        108156
#        120040
#        133850
#        146266
#        160911
#        175451
#        189970
#        203526
#        216550
#        229695
#        243610
#        257203
#        269491
#        283021
#
# Disc length: 3965 seconds
#
# Revision: 1
# Processed by: cddbd v1.5.2PL0 Copyright (c) Steve Scherf et al.
# Submitted via: ExactAudioCopyFreeDBPlugin 1.0
#
DISCID=4c0f7b16
DTITLE=Teddy Wilson - Swing Time 068 - Teddy Wilson 01 - 1935-36
DYEAR=1935
DGENRE=Jazz
TTITLE0=I Wished On The Moon
TTITLE1=What A Little Moonlight Can Do
TTITLE2=Miss Brown To You
TTITLE3=A Sunbonnet Blue
TTITLE4=What A Night, What A Moon, What A Girl
TTITLE5=I'm Painting The Town Red
TTITLE6=It's Too Hot For Word
TTITLE7=Sweet Lorraine
TTITLE8=Liza
TTITLE9=Twenty-Four Hours A Day
TTITLE10=Yankee Doodle Never Went  To Town
TTITLE11=Eeny Meeny Miney Mo
TTITLE12=If You Were Mine
TTITLE13=These 'n' That 'n' Those
TTITLE14=Sugar Plum
TTITLE15=You Let Me Down
TTITLE16=Spreadin' Rhythm Around
TTITLE17=Life Begins When You're In Love
TTITLE18=(If I Had) Rhythm In My Nursery Rhymes
TTITLE19=Christopher Columbus
TTITLE20=My Melancholy Baby
TTITLE21=All My Life
EXTD=YEAR: 2006
EXTT0=
EXTT1=
EXTT2=
EXTT3=
EXTT4=
EXTT5=
EXTT6=
EXTT7=
EXTT8=
EXTT9=
EXTT10=
EXTT11=
EXTT12=
EXTT13=
EXTT14=
EXTT15=
EXTT16=
EXTT17=
EXTT18=
EXTT19=
EXTT20=
EXTT21=
PLAYORDER=
